<svg width="19907" height="6444" viewBox="0 0 19907 6444" fill="none" xmlns="http://www.w3.org/2000/svg">
<path d="M8708.13 78.1487L5.17314 139L5.17322 874.72C5.17322 874.72 56.8935 2034.84 1152.14 2338.11C2247.39 2641.39 1634.71 3978.1 3219.34 3979.52C4803.97 3980.93 5850 4500 5850 4500C5850 4500 8020.36 5509.96 8145.07 5493.71C8269.78 5477.46 8845.54 5940.97 10165.2 5687.84C11484.9 5434.71 11822.4 5120.51 13225.7 5498.26C14629.1 5876.01 15270.4 6296.43 16122.4 6297.2C16974.4 6297.96 17294.5 6351.5 18116 6297.2C18937.5 6242.89 19111 6146.5 19228.5 6105.5C19346 6064.5 19387 6041 19645 5923.5C19903 5806 19867.8 5696.52 19867.8 5696.52L19863.4 139L8708.13 78.1487Z" fill="#F0F0F0"/>
</svg>
