<svg width="19879" height="2777" viewBox="0 0 19879 2777" fill="none" xmlns="http://www.w3.org/2000/svg">
<path d="M8705.03 77.9994L2.31252 138.849L16.9226 2228.38C16.9226 2228.38 -82.562 2628.88 1074.19 2747.84C2230.94 2866.8 4746.75 2391.17 5479.37 1894.33C6212 1397.5 7149.16 1249.19 7149.16 1249.19C7149.16 1249.19 7737.97 1097.59 8712.11 1090.78C9686.25 1083.97 9502.5 1163.5 10423 1163.5C11343.5 1163.5 12160.2 691.569 12293.9 643.725C12427.6 595.881 12643.6 539.694 13298.5 406.5C13953.4 273.306 14140.4 310.957 15271.5 176C16402.6 41.0427 18717.5 69.5 19289 176C19860.5 282.5 19860.5 176 19860.5 176L19860.5 9.78159e-05L8705.03 77.9994Z" fill="white"/>
</svg>
