<svg width="19879" height="2777" viewBox="0 0 19879 2777" fill="none" xmlns="http://www.w3.org/2000/svg">
<path d="M8705.03 77.9994L2.31252 138.849L16.9226 2228.38C16.9226 2228.38 -82.562 2628.88 1074.19 2747.84C2230.94 2866.8 4746.75 2391.17 5479.37 1894.33C6212 1397.5 7149.16 1249.19 7149.16 1249.19C7149.16 1249.19 7737.97 1097.59 8712.11 1090.78L10285 1079.78C10710 1076.81 12160.2 691.569 12293.9 643.725C12427.6 595.881 13081 510.704 13299.9 510.531C13518.9 510.358 14386.2 629.984 15517.3 495.027C16648.5 360.07 18721.5 469.094 19290.8 468.643C19860.1 468.192 19860.2 268.646 19860.2 268.646L19860.5 9.78159e-05L8705.03 77.9994Z" fill="white"/>
</svg>
